<?xml version="1.0" encoding="UTF-8"?>
<svg version="1.1" xmlns="http://www.w3.org/2000/svg" width="1664" height="368">
<path d="M0 0 C8.70636627 7.1409792 14.24118729 17.55069299 20.22460938 26.9296875 C22.83608408 31.00907181 25.48193781 35.06603996 28.125 39.125 C29.22664966 40.81895374 30.32821158 42.51296453 31.4296875 44.20703125 C31.97850586 45.05088379 32.52732422 45.89473633 33.09277344 46.76416016 C36.35284195 51.77721189 39.61133538 56.79128756 42.87011719 61.80517578 C45.60298855 66.00978311 48.33625408 70.21413319 51.0703125 74.41796875 C53.77034958 78.56973266 56.46925051 82.72223249 59.16699219 86.87548828 C60.23511673 88.51984657 61.30348168 90.16404873 62.37207031 91.80810547 C63.91581558 94.18385709 65.45811838 96.56053856 67 98.9375 C67.46615723 99.65446045 67.93231445 100.3714209 68.41259766 101.11010742 C71.63544255 106.08338509 71.63544255 106.08338509 72.75 108.3125 C76.61658537 107.7045573 79.63961463 106.53847163 83.1171875 104.7578125 C84.15480225 104.23155273 85.19241699 103.70529297 86.26147461 103.16308594 C87.37143799 102.59364258 88.48140137 102.02419922 89.625 101.4375 C91.99790546 100.23537234 94.37142819 99.03457342 96.74609375 97.8359375 C97.34343826 97.53385376 97.94078278 97.23177002 98.55622864 96.92053223 C103.89762129 94.22454621 109.28166821 91.62622796 114.6875 89.0625 C121.63620627 85.76608709 128.56628796 82.43471417 135.4765625 79.05859375 C136.2442244 78.68394989 137.01188629 78.30930603 137.80281067 77.92330933 C142.42892779 75.6655458 142.42892779 75.6655458 147.05172729 73.40100098 C182.10034349 56.20091441 182.10034349 56.20091441 198 60.4375 C207.79400809 63.86064846 215.69351752 70.55994074 221.03125 79.4453125 C231.11424745 101.36819332 229.30563644 135.32624143 223.75 158.3125 C223.45198486 159.56281006 223.45198486 159.56281006 223.14794922 160.83837891 C216.02508939 189.7940046 201.87706869 215.48227176 181.13574219 236.87988281 C179.89249382 238.1651861 178.66764896 239.46823077 177.4453125 240.7734375 C155.10671076 264.0939558 123.24463756 278.71815377 91.75 284.3125 C90.49445313 284.53808594 89.23890625 284.76367188 87.9453125 284.99609375 C46.07060611 291.30776987 1.99407024 280.97726977 -32.32006836 256.10083008 C-36.78579685 252.77180926 -40.96168273 249.18030965 -45.03125 245.375 C-47.00737093 243.53804251 -49.03954621 241.83438835 -51.125 240.125 C-80.88439814 214.02552784 -97.26108204 172.77699384 -100.08666992 134.06738281 C-102.76281853 88.9288763 -87.7053927 46.38366619 -58.00366211 12.51757812 C-42.49207841 -4.81175139 -21.41632751 -14.70069135 0 0 Z M-37.25 80.3125 C-40.03617805 85.8848561 -41.93218213 91.35372851 -43.4375 97.375 C-43.60411133 98.035 -43.77072266 98.695 -43.94238281 99.375 C-50.22736444 125.44412298 -45.36347846 154.19555076 -32.09375 177.359375 C-15.00147623 204.73598299 9.30072431 222.72617971 40.4375 230.3671875 C68.2728341 236.67754117 97.42235478 230.98195973 121.671875 216.34765625 C126.30029463 213.28749556 130.55376137 209.93587329 134.75 206.3125 C135.48476562 205.72210938 136.21953125 205.13171875 136.9765625 204.5234375 C152.89481798 191.30509814 167.43834124 169.11742885 169.75 148.3125 C164.73517632 149.8348308 160.19284767 151.92799569 155.51171875 154.2421875 C154.72241974 154.6285437 153.93312073 155.0148999 153.11990356 155.41296387 C151.4324643 156.2394091 149.74584047 157.06752103 148.05996704 157.89715576 C144.51985156 159.63901468 140.97549775 161.37216582 137.43138123 163.10586548 C135.66210311 163.97147518 133.8930289 164.83750179 132.12416077 165.70394897 C116.28314971 173.46321271 100.3675746 181.05845666 84.375 188.5 C83.75887848 188.78711853 83.14275696 189.07423706 82.50796509 189.37005615 C80.76921908 190.17960407 79.02916915 190.98634966 77.2890625 191.79296875 C76.29084473 192.25598389 75.29262695 192.71899902 74.26416016 193.19604492 C66.19088358 196.78111909 55.70734033 196.5206824 47.17578125 194.44140625 C36.73601907 190.36441846 30.33354354 183.51427876 24.5625 174.125 C23.43654422 172.34353108 22.31023185 170.56228749 21.18359375 168.78125 C20.61624512 167.87503906 20.04889648 166.96882813 19.46435547 166.03515625 C16.73426324 161.69935611 13.92711722 157.41444946 11.125 153.125 C10.03853394 151.45477079 8.95258999 149.78420182 7.8671875 148.11328125 C7.34350586 147.30713379 6.81982422 146.50098633 6.28027344 145.67041016 C3.48486462 141.36312579 0.69723624 137.05081476 -2.09082031 132.73876953 C-7.23119152 124.79102183 -12.39261002 116.85697611 -17.55322266 108.92236328 C-19.311181 106.21839569 -21.06785372 103.51359652 -22.82421875 100.80859375 C-23.4083252 99.90923096 -23.99243164 99.00986816 -24.59423828 98.08325195 C-25.70876662 96.36711902 -26.82303993 94.65082042 -27.93701172 92.93432617 C-28.92804336 91.40870465 -29.92045622 89.88397905 -30.91455078 88.36035156 C-31.77094823 87.04710443 -32.62381361 85.73154318 -33.47216797 84.41308594 C-34.37212345 83.02897463 -35.30674604 81.66747452 -36.25 80.3125 C-36.58 80.3125 -36.91 80.3125 -37.25 80.3125 Z " fill="#00743C" transform="translate(100.25,81.6875)"/>
<path d="M0 0 C9.99896769 6.86353614 15.87675652 18.31443933 22.26757812 28.33203125 C24.87905283 32.41141556 27.52490656 36.46838371 30.16796875 40.52734375 C31.26961841 42.22129749 32.37118033 43.91530828 33.47265625 45.609375 C34.02147461 46.45322754 34.57029297 47.29708008 35.13574219 48.16650391 C38.3958107 53.17955564 41.65430413 58.19363131 44.91308594 63.20751953 C47.6459573 67.41212686 50.37922283 71.61647694 53.11328125 75.8203125 C55.81331833 79.97207641 58.51221926 84.12457624 61.20996094 88.27783203 C62.27808548 89.92219032 63.34645043 91.56639248 64.41503906 93.21044922 C65.95878433 95.58620084 67.50108713 97.96288231 69.04296875 100.33984375 C69.50912598 101.0568042 69.9752832 101.77376465 70.45556641 102.51245117 C73.6784113 107.48572884 73.6784113 107.48572884 74.79296875 109.71484375 C78.65955412 109.10690105 81.68258338 107.94081538 85.16015625 106.16015625 C86.197771 105.63389648 87.23538574 105.10763672 88.30444336 104.56542969 C89.41440674 103.99598633 90.52437012 103.42654297 91.66796875 102.83984375 C94.04087421 101.63771609 96.41439694 100.43691717 98.7890625 99.23828125 C99.38640701 98.93619751 99.98375153 98.63411377 100.59919739 98.32287598 C105.94059004 95.62688996 111.32463696 93.02857171 116.73046875 90.46484375 C123.67917502 87.16843084 130.60925671 83.83705792 137.51953125 80.4609375 C138.28719315 80.08629364 139.05485504 79.71164978 139.84577942 79.32565308 C144.47189654 77.06788955 144.47189654 77.06788955 149.09469604 74.80334473 C184.14331224 57.60325816 184.14331224 57.60325816 200.04296875 61.83984375 C209.96032467 65.30610407 217.67109353 72.06178882 223.1796875 80.953125 C227.35866721 89.67766159 227.07504912 100.91319095 224.66796875 110.15234375 C219.95752601 123.21012921 210.32746039 130.46403251 198.16796875 136.21484375 C196.70774292 136.92519775 196.70774292 136.92519775 195.21801758 137.64990234 C193.28488668 138.59010182 191.34948201 139.52564339 189.41162109 140.45605469 C186.08600214 142.05468338 182.78158463 143.69120284 179.48046875 145.33984375 C178.38992188 145.88382813 177.299375 146.4278125 176.17578125 146.98828125 C173.0784361 148.56914332 170.01192093 150.19546918 166.94897461 151.84130859 C158.92506196 156.14755303 150.7960627 160.16761637 142.56640625 164.06542969 C136.48800693 166.94539573 130.42697754 169.85762695 124.3828125 172.80859375 C123.64828857 173.16715454 122.91376465 173.52571533 122.15698242 173.8951416 C121.41407959 174.25781128 120.67117676 174.62048096 119.90576172 174.99414062 C66.65539088 200.9891907 66.65539088 200.9891907 49.25390625 196.87890625 C34.8484009 191.33260057 28.30411433 179.95299655 20.49121094 167.42138672 C17.77185554 163.08746293 14.96698804 158.81005998 12.16796875 154.52734375 C11.08146296 152.85714038 9.99551839 151.18657178 8.91015625 149.515625 C8.38647461 148.70947754 7.86279297 147.90333008 7.32324219 147.07275391 C4.52783337 142.76546954 1.74020499 138.45315851 -1.04785156 134.14111328 C-4.5518761 128.72339114 -8.06542342 123.31190511 -11.58203125 117.90234375 C-12.12021484 117.07371826 -12.65839844 116.24509277 -13.21289062 115.39135742 C-16.04844366 111.02718506 -18.89149096 106.66814542 -21.74609375 102.31640625 C-22.32568848 101.43057861 -22.9052832 100.54475098 -23.50244141 99.63208008 C-24.60114881 97.95317586 -25.70220888 96.27580775 -26.80615234 94.6003418 C-29.73424352 90.12012805 -32.43755696 85.58029563 -35.00097656 80.88256836 C-36.90627918 77.4580376 -38.98868573 74.15161735 -41.08203125 70.83984375 C-41.51402832 70.15003418 -41.94602539 69.46022461 -42.39111328 68.74951172 C-44.32045096 65.67474164 -46.26988241 62.61961472 -48.26953125 59.58984375 C-55.84556032 48.09517896 -59.56285048 37.59434504 -57.20703125 23.71484375 C-55.23389197 17.29773677 -52.00311147 11.42653546 -47.20703125 6.71484375 C-46.87703125 5.72484375 -46.54703125 4.73484375 -46.20703125 3.71484375 C-43.94921875 1.9609375 -43.94921875 1.9609375 -41.08203125 0.15234375 C-39.68597656 -0.74677734 -39.68597656 -0.74677734 -38.26171875 -1.6640625 C-26.14978495 -8.09175115 -11.6199991 -6.76633576 0 0 Z " fill="#00A449" transform="translate(98.20703125,80.28515625)"/>
<path d="M0 0 C9.99896769 6.86353614 15.87675652 18.31443933 22.26757812 28.33203125 C24.87905283 32.41141556 27.52490656 36.46838371 30.16796875 40.52734375 C31.26961841 42.22129749 32.37118033 43.91530828 33.47265625 45.609375 C34.02147461 46.45322754 34.57029297 47.29708008 35.13574219 48.16650391 C38.3958107 53.17955564 41.65430413 58.19363131 44.91308594 63.20751953 C47.6459573 67.41212686 50.37922283 71.61647694 53.11328125 75.8203125 C55.81517715 79.97475081 58.51501588 84.13052152 61.21435547 88.28662109 C62.80215932 90.72898069 64.39309387 93.16927991 65.984375 95.609375 C66.98314421 97.14448487 67.9818453 98.67963906 68.98046875 100.21484375 C69.43824707 100.91504639 69.89602539 101.61524902 70.36767578 102.33666992 C70.79032715 102.98740479 71.21297852 103.63813965 71.6484375 104.30859375 C72.01606201 104.87255859 72.38368652 105.43652344 72.76245117 106.01757812 C73.88629907 107.86855907 74.84903863 109.76684023 75.79296875 111.71484375 C72.96125545 113.21791569 70.12736141 114.71683108 67.29296875 116.21484375 C66.43598389 116.66899658 65.57899902 117.12314941 64.69604492 117.59106445 C59.88430509 120.12924721 55.04655641 122.57785815 50.13818359 124.9230957 C38.34907086 130.60242926 30.63950813 136.78504283 26.15234375 149.53515625 C24.6980362 158.35584767 24.4399998 168.27589717 29.015625 176.1484375 C29.27214844 176.66535156 29.52867188 177.18226563 29.79296875 177.71484375 C29.46296875 178.37484375 29.13296875 179.03484375 28.79296875 179.71484375 C18.67245988 164.63688472 8.81290425 149.3913299 -1.04711914 134.14233398 C-4.55129717 128.72414626 -8.06516497 123.31230268 -11.58203125 117.90234375 C-12.12021484 117.07371826 -12.65839844 116.24509277 -13.21289062 115.39135742 C-16.04844366 111.02718506 -18.89149096 106.66814542 -21.74609375 102.31640625 C-22.32568848 101.43057861 -22.9052832 100.54475098 -23.50244141 99.63208008 C-24.60114881 97.95317586 -25.70220888 96.27580775 -26.80615234 94.6003418 C-29.73424352 90.12012805 -32.43755696 85.58029563 -35.00097656 80.88256836 C-36.90627918 77.4580376 -38.98868573 74.15161735 -41.08203125 70.83984375 C-41.51402832 70.15003418 -41.94602539 69.46022461 -42.39111328 68.74951172 C-44.32045096 65.67474164 -46.26988241 62.61961472 -48.26953125 59.58984375 C-55.84556032 48.09517896 -59.56285048 37.59434504 -57.20703125 23.71484375 C-55.23389197 17.29773677 -52.00311147 11.42653546 -47.20703125 6.71484375 C-46.87703125 5.72484375 -46.54703125 4.73484375 -46.20703125 3.71484375 C-43.94921875 1.9609375 -43.94921875 1.9609375 -41.08203125 0.15234375 C-39.68597656 -0.74677734 -39.68597656 -0.74677734 -38.26171875 -1.6640625 C-26.14978495 -8.09175115 -11.6199991 -6.76633576 0 0 Z " fill="#71C12A" transform="translate(98.20703125,80.28515625)"/>
<path d="M0 0 C11.22 0 22.44 0 34 0 C38.0335305 9.96035082 41.99057032 19.94238835 45.8359375 29.9765625 C46.17179367 30.85261642 46.50764984 31.72867035 46.85368347 32.63127136 C48.56751105 37.10424578 50.27723176 41.57875062 51.98266602 46.05493164 C52.62249561 47.72805143 53.26238557 49.40114814 53.90234375 51.07421875 C54.19994598 51.85878448 54.49754822 52.64335022 54.8041687 53.45169067 C55.95471764 56.9908555 55.95471764 56.9908555 58 60 C58.21440231 59.42529968 58.42880463 58.85059937 58.64970398 58.25848389 C60.90232751 52.22175511 63.15815884 46.18623186 65.41577148 40.15136719 C66.25544509 37.90557478 67.09432819 35.65948664 67.93237305 33.41308594 C69.14418997 30.16521449 70.3589426 26.91845344 71.57421875 23.671875 C71.94214035 22.68386902 72.31006195 21.69586304 72.68913269 20.67791748 C75.30415391 13.70379601 78.13059738 6.88656628 81 0 C91.89 0 102.78 0 114 0 C114 32.34 114 64.68 114 98 C104.76 98 95.52 98 86 98 C85.67 83.15 85.34 68.3 85 53 C83.92878906 56.16464844 82.85757813 59.32929688 81.75390625 62.58984375 C80.71872538 65.64143556 79.68253294 68.69268209 78.64624023 71.74389648 C77.92447635 73.87081546 77.2037709 75.99809391 76.48413086 78.12573242 C75.45181387 81.17721312 74.4157443 84.22739674 73.37890625 87.27734375 C73.05596085 88.23462875 72.73301544 89.19191376 72.40028381 90.1782074 C72.10004807 91.05904495 71.79981232 91.93988251 71.49047852 92.84741211 C71.22622574 93.62684677 70.96197296 94.40628143 70.68971252 95.20933533 C70 97 70 97 69 98 C61.08 98 53.16 98 45 98 C39.72 82.49 34.44 66.98 29 51 C28.67 66.51 28.34 82.02 28 98 C18.76 98 9.52 98 0 98 C0 65.66 0 33.32 0 0 Z " fill="#00743D" transform="translate(401,204)"/>
<path d="M0 0 C11.22 0 22.44 0 34 0 C35.24136719 3.24199219 36.48273438 6.48398438 37.76171875 9.82421875 C38.97971345 13.00497295 40.19774095 16.1857146 41.41577148 19.36645508 C42.25467288 21.55719719 43.0935408 23.74795212 43.93237305 25.9387207 C50.45431947 42.97391535 50.45431947 42.97391535 57 60 C61.0745571 50.44249628 64.81122317 40.77357345 68.5 31.0625 C69.06102241 29.58912587 69.62221961 28.11581828 70.18359375 26.64257812 C70.45905029 25.91952484 70.73450684 25.19647156 71.01831055 24.45150757 C71.56393713 23.0195202 72.10967093 21.58757367 72.65551758 20.15567017 C73.9358257 16.79652687 75.21349207 13.43645188 76.484375 10.07373047 C77.15726563 8.30280029 77.15726563 8.30280029 77.84375 6.49609375 C78.23755859 5.45509521 78.63136719 4.41409668 79.03710938 3.34155273 C80 1 80 1 81 0 C91.89 0 102.78 0 114 0 C114 32.34 114 64.68 114 98 C104.76 98 95.52 98 86 98 C85.67 83.15 85.34 68.3 85 53 C83.92878906 56.08085938 82.85757813 59.16171875 81.75390625 62.3359375 C80.71834142 65.3113108 79.68231358 68.28652249 78.64624023 71.26171875 C77.92505197 73.33349004 77.20434705 75.40542965 76.48413086 77.47753906 C75.45031982 80.45161348 74.41478625 83.42508318 73.37890625 86.3984375 C73.05596085 87.32868744 72.73301544 88.25893738 72.40028381 89.21737671 C72.10004807 90.07811798 71.79981232 90.93885925 71.49047852 91.82568359 C71.22622574 92.58513275 70.96197296 93.34458191 70.68971252 94.12704468 C70 96 70 96 69 98 C61.08 98 53.16 98 45 98 C42.88188809 91.93113784 40.76390156 85.86223224 38.64624023 79.79321289 C37.92561189 77.72808263 37.20490915 75.66297832 36.48413086 73.59790039 C35.44886081 70.63174125 34.41385722 67.66548924 33.37890625 64.69921875 C33.05596085 63.7741301 32.73301544 62.84904144 32.40028381 61.8959198 C32.10004807 61.03525406 31.79981232 60.17458832 31.49047852 59.2878418 C31.22622574 58.53061325 30.96197296 57.7733847 30.68971252 56.99320984 C30.1151217 55.3326918 29.5556505 53.6669515 29 52 C28.67 67.18 28.34 82.36 28 98 C18.76 98 9.52 98 0 98 C0 65.66 0 33.32 0 0 Z " fill="#00A54A" transform="translate(442,66)"/>
<path d="M0 0 C11.22 0 22.44 0 34 0 C36.79369022 7.2589938 39.5871722 14.51806704 42.38012695 21.77734375 C43.32954931 24.24483858 44.27909217 26.71228705 45.22875977 29.1796875 C46.59683707 32.7342519 47.96447538 36.28898495 49.33203125 39.84375 C49.96501884 41.48796936 49.96501884 41.48796936 50.61079407 43.16540527 C52.76560203 48.76782462 54.902776 54.37576137 57 60 C62.62300212 47.0160094 67.48816968 33.72123112 72.50878906 20.49682617 C73.71714632 17.31603118 74.92871375 14.13647349 76.140625 10.95703125 C76.6999472 9.47913872 76.6999472 9.47913872 77.27056885 7.97138977 C77.61472839 7.06922226 77.95888794 6.16705475 78.31347656 5.23754883 C78.61594299 4.44101395 78.91840942 3.64447906 79.2300415 2.82380676 C80 1 80 1 81 0 C91.89 0 102.78 0 114 0 C114 32.34 114 64.68 114 98 C104.76 98 95.52 98 86 98 C85.67 82.82 85.34 67.64 85 52 C83.92878906 55.15304687 82.85757812 58.30609375 81.75390625 61.5546875 C80.71836003 64.59956327 79.6823242 67.64427202 78.64624023 70.68896484 C77.92502408 72.80923311 77.20431909 74.92967533 76.48413086 77.05029297 C75.45039238 80.09388086 74.41483258 83.13684369 73.37890625 86.1796875 C73.05596085 87.13181122 72.73301544 88.08393494 72.40028381 89.06491089 C72.10004807 89.94567291 71.79981232 90.82643494 71.49047852 91.73388672 C71.22622574 92.51110077 70.96197296 93.28831482 70.68971252 94.08908081 C70 96 70 96 69 98 C61.08 98 53.16 98 45 98 C42.88188809 91.93113784 40.76390156 85.86223224 38.64624023 79.79321289 C37.92561189 77.72808263 37.20490915 75.66297832 36.48413086 73.59790039 C35.44886081 70.63174125 34.41385722 67.66548924 33.37890625 64.69921875 C33.05596085 63.7741301 32.73301544 62.84904144 32.40028381 61.8959198 C32.10004807 61.03525406 31.79981232 60.17458832 31.49047852 59.2878418 C31.22622574 58.53061325 30.96197296 57.7733847 30.68971252 56.99320984 C30.1151217 55.3326918 29.5556505 53.6669515 29 52 C28.67 67.18 28.34 82.36 28 98 C18.76 98 9.52 98 0 98 C0 65.66 0 33.32 0 0 Z " fill="#00743D" transform="translate(988,204)"/>
<path d="M0 0 C0.63550781 0.43957031 1.27101563 0.87914062 1.92578125 1.33203125 C11.26202648 8.51535075 15.96821554 19.87286214 18.75 31 C19.91776255 45.01315058 17.70147429 58.17528633 9.02734375 69.59765625 C0.70720286 79.32649824 -9.30825583 87.00930108 -22.40820312 88.22314453 C-32.72713255 88.83227453 -42.68598899 88.99851924 -52 84 C-53.28390625 83.34644531 -53.28390625 83.34644531 -54.59375 82.6796875 C-66.4396365 76.15017777 -74.61465741 66.07229976 -78.4765625 53.078125 C-82.01411859 39.03349934 -79.97134069 24.88257966 -72.58984375 12.4296875 C-65.44659688 1.51298098 -55.33893534 -4.92073449 -43 -9 C-27.33776224 -12.25691567 -13.02097304 -9.14925009 0 0 Z " fill="#72C22A" transform="translate(182,10)"/>
<path d="M0 0 C10.76451131 7.71126966 17.11355165 17.62657959 20.00390625 30.515625 C22.29915807 44.54697575 20.17942541 57.49218952 12.46875 69.56640625 C4.66376846 80.04235484 -6.05521281 87.05681927 -18.8125 89.875 C-28.47709217 90.63854212 -38.86625831 90.96825443 -47.8125 86.875 C-48.71097656 86.4728125 -49.60945313 86.070625 -50.53515625 85.65625 C-62.79109908 79.58728244 -71.13361087 69.7333755 -75.91015625 56.93359375 C-80.00053039 42.64582175 -78.33516416 28.4018703 -71.375 15.3515625 C-64.07874738 3.7870021 -53.55059401 -3.85659178 -40.3984375 -7.46484375 C-26.00048164 -10.11544783 -12.32342883 -8.26189437 0 0 Z " fill="#00A54A" transform="translate(285.8125,47.125)"/>
<path d="M0 0 C9.24 0 18.48 0 28 0 C35.86826347 11.24037639 35.86826347 11.24037639 39.05078125 16.13671875 C39.75009766 17.20986328 40.44941406 18.28300781 41.16992188 19.38867188 C41.87697266 20.47728516 42.58402344 21.56589844 43.3125 22.6875 C49.47890044 32.16855499 55.72569196 41.58853793 62 51 C62.33 34.17 62.66 17.34 63 0 C72.24 0 81.48 0 91 0 C91 32.34 91 64.68 91 98 C81.76 98 72.52 98 63 98 C58.04363588 91.18499934 53.1772574 84.40921131 48.53125 77.39453125 C48.02819336 76.63893921 47.52513672 75.88334717 47.00683594 75.1048584 C45.16865629 72.3424458 43.3345488 69.57732521 41.5 66.8125 C37.375 60.604375 33.25 54.39625 29 48 C28.67 64.5 28.34 81 28 98 C18.76 98 9.52 98 0 98 C0 65.66 0 33.32 0 0 Z " fill="#00743D" transform="translate(630,204)"/>
<path d="M0 0 C9.24 0 18.48 0 28 0 C37.13435182 12.55973375 37.13435182 12.55973375 41.0625 18.75 C41.98644056 20.19175155 42.91095503 21.63313543 43.8359375 23.07421875 C44.3319043 23.84813965 44.82787109 24.62206055 45.33886719 25.41943359 C48.59802318 30.48252573 51.8954683 35.52074952 55.1875 40.5625 C57.435625 44.006875 59.68375 47.45125 62 51 C62.33 34.17 62.66 17.34 63 0 C72.24 0 81.48 0 91 0 C91 32.34 91 64.68 91 98 C81.76 98 72.52 98 63 98 C58.37832896 91.3976128 53.82806557 84.78937279 49.41015625 78.0546875 C48.88643433 77.25877197 48.3627124 76.46285645 47.82312012 75.64282227 C45.90130985 72.72126904 43.98204588 69.79804149 42.0625 66.875 C35.5965625 57.036875 35.5965625 57.036875 29 47 C28.67 63.83 28.34 80.66 28 98 C18.76 98 9.52 98 0 98 C0 65.66 0 33.32 0 0 Z " fill="#00743D" transform="translate(1188,204)"/>
<path d="M0 0 C10.22475706 7.64963306 16.98201972 17.53714881 20 30 C22.32573881 46.653648 19.88493989 60.75481147 10.1484375 74.640625 C2.04081798 84.44984368 -9.50539916 90.94639003 -22.22265625 92.22314453 C-37.43899128 93.22273491 -50.79227665 90.70309926 -63 81 C-73.75661411 71.03086387 -78.91870309 59.52395882 -80.28515625 44.9609375 C-80.7049408 31.12629897 -76.80430132 18.40010013 -67.875 7.8125 C-60.9544153 0.50105172 -52.80050424 -4.59610273 -43 -7 C-42.2575 -7.18304688 -41.515 -7.36609375 -40.75 -7.5546875 C-26.52940777 -9.85745386 -12.25583401 -7.73951093 0 0 Z M-44 22 C-51.19206506 30.59577951 -51.64184149 38.00229286 -51 49 C-50.00553615 55.23528836 -46.87171966 58.55913833 -42.1328125 62.5546875 C-36.37398732 66.45718808 -30.7720449 66.75139262 -24 66 C-17.89368561 64.25384503 -13.33164231 60.36882487 -10 55 C-6.92593241 47.48794404 -6.5916672 38.18075125 -9.1875 30.4375 C-12.21460769 24.69643369 -16.78090951 20.07303016 -23 18 C-30.47682579 17.37607883 -38.01735536 16.8739613 -44 22 Z " fill="#73C229" transform="translate(1290,73)"/>
<path d="M0 0 C61.20622568 0 61.20622568 0 72.20703125 10.0078125 C78.37407417 17.25246502 80.35323361 25.16869382 80 34.5625 C79.11557805 42.48466255 76.5449903 49.02540235 70.5625 54.4375 C63.34543201 60 63.34543201 60 59 60 C61.02519599 63.52036925 63.05162315 67.04002677 65.07910156 70.55908203 C65.7659482 71.75160427 66.45248165 72.94430697 67.13867188 74.13720703 C70.99707002 80.84427632 74.88075311 87.52314921 78.96435547 94.09619141 C80 96 80 96 80 98 C69.77 98 59.54 98 49 98 C45.30226299 91.5812867 41.61975214 85.16507701 38.08984375 78.65234375 C37.59846924 77.74774414 37.10709473 76.84314453 36.60083008 75.91113281 C35.6232699 74.10705319 34.65038232 72.30043321 33.68237305 70.49121094 C33.23289307 69.66266602 32.78341309 68.83412109 32.3203125 67.98046875 C31.72114014 66.86514771 31.72114014 66.86514771 31.10986328 65.72729492 C30.10460359 63.83949796 30.10460359 63.83949796 28 63 C28 74.55 28 86.1 28 98 C18.76 98 9.52 98 0 98 C0 65.66 0 33.32 0 0 Z M28 24 C28 30.27 28 36.54 28 43 C32.08375 43.061875 32.08375 43.061875 36.25 43.125 C37.10110352 43.14320801 37.95220703 43.16141602 38.82910156 43.18017578 C44.23020408 43.29181777 44.23020408 43.29181777 49 41 C51.45665197 37.31502204 51.70086491 34.28028214 51 30 C49.20636089 27.1899654 47.98119065 25.49059532 45 24 C42.11426648 23.92800066 39.25934885 23.9072932 36.375 23.9375 C32.229375 23.9684375 32.229375 23.9684375 28 24 Z " fill="#73C229" transform="translate(1320,66)"/>
<path d="M0 0 C56.75 0 56.75 0 70.8125 8.75 C76.69820286 14.8038658 79.88296452 22.64390572 80.06640625 31.0390625 C79.74270727 39.41599965 78.07410946 46.51752992 72.32421875 52.84375 C68.70049502 56.12197457 64.06755981 60 59 60 C61.02519599 63.52036925 63.05162315 67.04002677 65.07910156 70.55908203 C65.7659482 71.75160427 66.45248165 72.94430697 67.13867188 74.13720703 C70.99707002 80.84427632 74.88075311 87.52314921 78.96435547 94.09619141 C80 96 80 96 80 98 C69.77 98 59.54 98 49 98 C45.30226299 91.5812867 41.61975214 85.16507701 38.08984375 78.65234375 C37.59846924 77.74774414 37.10709473 76.84314453 36.60083008 75.91113281 C35.6232699 74.10705319 34.65038232 72.30043321 33.68237305 70.49121094 C33.23289307 69.66266602 32.78341309 68.83412109 32.3203125 67.98046875 C31.72114014 66.86514771 31.72114014 66.86514771 31.10986328 65.72729492 C30.10460359 63.83949796 30.10460359 63.83949796 28 63 C28 74.55 28 86.1 28 98 C18.76 98 9.52 98 0 98 C0 65.66 0 33.32 0 0 Z M28 24 C28 30.27 28 36.54 28 43 C32.08375 43.061875 32.08375 43.061875 36.25 43.125 C37.10110352 43.14320801 37.95220703 43.16141602 38.82910156 43.18017578 C44.23020408 43.29181777 44.23020408 43.29181777 49 41 C51.45665197 37.31502204 51.70086491 34.28028214 51 30 C49.20636089 27.1899654 47.98119065 25.49059532 45 24 C42.11426648 23.92800066 39.25934885 23.9072932 36.375 23.9375 C32.229375 23.9684375 32.229375 23.9684375 28 24 Z " fill="#73C229" transform="translate(965,66)"/>
<path d="M0 0 C10.89 0 21.78 0 33 0 C34.90458984 5.35025391 34.90458984 5.35025391 36.84765625 10.80859375 C38.58502414 15.68522157 40.32357728 20.56142643 42.0625 25.4375 C42.28720474 26.06767658 42.51190948 26.69785316 42.74342346 27.34712601 C49.62926525 46.65630584 56.58600348 65.93770976 63.67993164 85.17163086 C63.97583694 85.97540161 64.27174225 86.77917236 64.57661438 87.6072998 C65.12417098 89.09402051 65.67314335 90.58022086 66.22380066 92.0657959 C68 96.88825369 68 96.88825369 68 98 C58.1 98 48.2 98 38 98 C33 84 33 84 33 82 C16.665 82.495 16.665 82.495 0 83 C-1.65 87.95 -3.3 92.9 -5 98 C-14.9 98 -24.8 98 -35 98 C-31.62465696 86.74885653 -31.62465696 86.74885653 -29.79858398 81.69360352 C-29.39063095 80.56024063 -28.98267792 79.42687775 -28.56236267 78.25917053 C-28.12799393 77.06118332 -27.69362518 75.86319611 -27.24609375 74.62890625 C-26.78088927 73.34031886 -26.3158927 72.05165638 -25.85108948 70.76292419 C-24.87690605 68.06359848 -23.90095925 65.36491966 -22.92358398 62.66674805 C-21.70322818 59.29769828 -20.48609106 55.92749833 -19.27016258 52.55684853 C-12.93715857 35.00371967 -6.50219435 17.4913177 0 0 Z M16 33 C13.39291246 39.05892971 11.22045687 45.21037521 9.25 51.5 C9.02739502 52.20640625 8.80479004 52.9128125 8.57543945 53.640625 C7.40435626 57.25283794 7.40435626 57.25283794 7 61 C13.27 61 19.54 61 26 61 C23.03 51.76 20.06 42.52 17 33 C16.67 33 16.34 33 16 33 Z " fill="#00743D" transform="translate(762,204)"/>
<path d="M0 0 C1.34888732 0.00015905 2.69778075 0.00584927 4.04663086 0.01586914 C5.10991859 0.01799156 5.10991859 0.01799156 6.19468689 0.02015686 C8.46699173 0.02577096 10.73919936 0.03832576 13.01147461 0.05102539 C14.54858257 0.05603858 16.08569206 0.0606018 17.62280273 0.06469727 C21.39823103 0.07574497 25.17358632 0.09301898 28.94897461 0.11352539 C35.65628387 17.81107875 42.13059003 35.58792652 48.53216553 53.39758301 C50.00181103 57.48513833 51.47369843 61.57188683 52.94523144 65.65876293 C54.08815828 68.83313128 55.23067781 72.00764405 56.37239075 75.18244934 C56.78349594 76.32541977 57.19460114 77.4683902 57.61816406 78.64599609 C58.00791412 79.73135651 58.39766418 80.81671692 58.79922485 81.93496704 C59.57151746 84.07002042 60.35239673 86.20198563 61.14144897 88.3309021 C61.69235703 89.81887802 61.69235703 89.81887802 62.25439453 91.33691406 C62.58154953 92.21216232 62.90870453 93.08741058 63.24577332 93.98918152 C63.94897461 96.11352539 63.94897461 96.11352539 63.94897461 98.11352539 C54.04897461 98.11352539 44.14897461 98.11352539 33.94897461 98.11352539 C32.29897461 93.16352539 30.64897461 88.21352539 28.94897461 83.11352539 C18.05897461 82.78352539 7.16897461 82.45352539 -4.05102539 82.11352539 C-5.04102539 85.74352539 -6.03102539 89.37352539 -7.05102539 93.11352539 C-7.71102539 94.76352539 -8.37102539 96.41352539 -9.05102539 98.11352539 C-18.62102539 98.11352539 -28.19102539 98.11352539 -38.05102539 98.11352539 C-35.8009987 87.98840529 -35.8009987 87.98840529 -34.07080078 83.24365234 C-33.68567825 82.17903778 -33.30055573 81.11442322 -32.90376282 80.01754761 C-32.48958603 78.89035309 -32.07540924 77.76315857 -31.64868164 76.60180664 C-31.21456467 75.40661407 -30.78044769 74.21142151 -30.33317566 72.98001099 C-29.17179858 69.78300745 -28.00360197 66.58853865 -26.83381653 63.39460373 C-25.630678 60.10638828 -24.43347613 56.81601263 -23.2355957 53.52587891 C-21.35942072 48.37508394 -19.47950933 43.22566923 -17.59643555 38.07739258 C-15.75682095 33.04716583 -13.92266798 28.01501292 -12.09519958 22.98036194 C-11.0593887 20.12679881 -10.02124812 17.27408896 -8.98214722 14.42172241 C-8.3152176 12.59000422 -7.65002149 10.75765516 -6.98486328 8.92529297 C-6.4065979 7.34590942 -6.4065979 7.34590942 -5.81665039 5.73461914 C-5.49470703 4.85217529 -5.17276367 3.96973145 -4.84106445 3.06054688 C-3.58746479 -0.02890224 -3.54618086 0.1319496 0 0 Z M11.94897461 33.11352539 C7.49397461 46.97352539 7.49397461 46.97352539 2.94897461 61.11352539 C9.21897461 61.11352539 15.48897461 61.11352539 21.94897461 61.11352539 C20.52432924 54.70262122 19.0127748 48.78449228 16.94897461 42.61352539 C16.55838867 41.39922852 16.55838867 41.39922852 16.15991211 40.16040039 C15.48329629 38.12371842 14.72277167 36.11530474 13.94897461 34.11352539 C13.28897461 33.78352539 12.62897461 33.45352539 11.94897461 33.11352539 Z " fill="#00743D" transform="translate(560.051025390625,203.886474609375)"/>
<path d="M0 0 C10.56 0 21.12 0 32 0 C37.62478901 13.49949362 37.62478901 13.49949362 39.46020508 18.61279297 C39.87446243 19.76214325 40.28871979 20.91149353 40.7155304 22.09567261 C41.14585068 23.29902252 41.57617096 24.50237244 42.01953125 25.7421875 C42.48619062 27.0400667 42.95313155 28.33784471 43.42033386 29.63552856 C44.64131793 33.0290464 45.85878542 36.42381457 47.07537842 39.81890869 C48.52832933 43.87169973 49.98523751 47.92306938 51.44183159 51.97455215 C52.62382492 55.26246961 53.80491156 58.55070508 54.9836731 61.83978271 C57.12675587 67.81617542 59.28300856 73.78704677 61.48193359 79.74316406 C61.85887863 80.76677032 62.23582367 81.79037659 62.62419128 82.84500122 C63.32027601 84.73105856 64.0203104 86.61566485 64.72505188 88.49850464 C65.02807724 89.32029205 65.3311026 90.14207947 65.64331055 90.98876953 C65.9072612 91.69663605 66.17121185 92.40450256 66.44316101 93.13381958 C67 95 67 95 67 98 C57.43 98 47.86 98 38 98 C34 88 34 88 33 82 C21.78 82 10.56 82 -1 82 C-1.66 84.97 -2.32 87.94 -3 91 C-3.99 93.31 -4.98 95.62 -6 98 C-15.57 98 -25.14 98 -35 98 C-34.31415529 94.57077644 -33.64963574 91.74907215 -32.48803711 88.52490234 C-32.17882828 87.66155273 -31.86961945 86.79820312 -31.55104065 85.90869141 C-31.21322067 84.97718262 -30.8754007 84.04567383 -30.52734375 83.0859375 C-30.17216171 82.09851563 -29.81697968 81.11109375 -29.45103455 80.09375 C-28.28369584 76.85276713 -27.11082993 73.61381824 -25.9375 70.375 C-25.12966363 68.13755292 -24.32188424 65.90008527 -23.51416016 63.66259766 C-15.82177603 42.38745537 -7.9410577 21.18336646 0 0 Z M16 33 C13.5147264 38.90078929 11.29700449 44.87287278 9.25 50.9375 C8.91609253 51.9131189 8.91609253 51.9131189 8.57543945 52.90844727 C7.63281732 55.73927207 7 57.99379164 7 61 C13.27 61 19.54 61 26 61 C23.03 51.76 20.06 42.52 17 33 C16.67 33 16.34 33 16 33 Z " fill="#00743D" transform="translate(1345,204)"/>
<path d="M0 0 C10.56 0 21.12 0 32 0 C37.62478901 13.49949362 37.62478901 13.49949362 39.46020508 18.61279297 C39.87446243 19.76214325 40.28871979 20.91149353 40.7155304 22.09567261 C41.14585068 23.29902252 41.57617096 24.50237244 42.01953125 25.7421875 C42.48619062 27.0400667 42.95313155 28.33784471 43.42033386 29.63552856 C44.64131793 33.0290464 45.85878542 36.42381457 47.07537842 39.81890869 C48.52832933 43.87169973 49.98523751 47.92306938 51.44183159 51.97455215 C52.62382492 55.26246961 53.80491156 58.55070508 54.9836731 61.83978271 C57.12675587 67.81617542 59.28300856 73.78704677 61.48193359 79.74316406 C61.85887863 80.76677032 62.23582367 81.79037659 62.62419128 82.84500122 C63.32027601 84.73105856 64.0203104 86.61566485 64.72505188 88.49850464 C65.02807724 89.32029205 65.3311026 90.14207947 65.64331055 90.98876953 C65.9072612 91.69663605 66.17121185 92.40450256 66.44316101 93.13381958 C67 95 67 95 67 98 C57.43 98 47.86 98 38 98 C34 88 34 88 33 82 C21.78 82 10.56 82 -1 82 C-1.66 84.97 -2.32 87.94 -3 91 C-3.66 93.31 -4.32 95.62 -5 98 C-14.9 98 -24.8 98 -35 98 C-31.62447073 86.74823575 -31.62447073 86.74823575 -29.69091797 81.37060547 C-29.25971649 80.16749725 -28.82851501 78.96438904 -28.38424683 77.724823 C-27.92032897 76.43890772 -27.4563063 75.15303026 -26.9921875 73.8671875 C-26.50218776 72.50414475 -26.0123746 71.14103492 -25.5227356 69.77786255 C-24.49727504 66.92471661 -23.47003342 64.07222063 -22.44140625 61.22021484 C-21.15115917 57.64260666 -19.86461922 54.06368007 -18.57931137 50.48429489 C-12.51682185 33.60513964 -6.33941591 16.77770573 0 0 Z M16 33 C13.5147264 38.90078929 11.29700449 44.87287278 9.25 50.9375 C8.91609253 51.9131189 8.91609253 51.9131189 8.57543945 52.90844727 C7.63281732 55.73927207 7 57.99379164 7 61 C13.27 61 19.54 61 26 61 C23.03 51.76 20.06 42.52 17 33 C16.67 33 16.34 33 16 33 Z " fill="#00A54A" transform="translate(683,66)"/>
<path d="M0 0 C6.24464163 6.56764033 9.61600078 14.27137352 11 23.15625 C6.81923925 23.30508585 2.63989863 23.41368418 -1.54272461 23.48583984 C-2.9638964 23.51592954 -4.38488372 23.55681404 -5.80541992 23.60888672 C-17.66216456 24.0324902 -17.66216456 24.0324902 -20.98266602 21.85766602 C-22.296875 20.24609375 -22.296875 20.24609375 -24 17.15625 C-29.26132246 13.43482679 -33.58379839 12.72125328 -40 13.15625 C-42.45775665 13.9788667 -44.65297707 15.02787359 -47 16.15625 C-47.99 16.48625 -48.98 16.81625 -50 17.15625 C-51.11935073 18.80255193 -51.11935073 18.80255193 -52 21.15625 C-52.53625 22.249375 -53.0725 23.3425 -53.625 24.46875 C-56.50552134 32.41245576 -56.42388672 42.05437051 -53 49.78125 C-50.24270764 54.40241039 -47.15139929 57.43331578 -42 59.15625 C-35.81362331 60.05257162 -30.19996705 59.90506345 -25 56.15625 C-24.65864014 55.59357422 -24.31728027 55.03089844 -23.96557617 54.45117188 C-22.50695488 52.1018289 -21.29048328 50.73623464 -19 49.15625 C-13.85939031 48.2674441 -8.80924451 48.49567476 -3.625 48.71875 C-2.20710801 48.75389765 -0.78913247 48.78583066 0.62890625 48.81445312 C4.08768539 48.89123745 7.54330845 49.01182441 11 49.15625 C10.70343495 50.57510655 10.40161635 51.99286553 10.09765625 53.41015625 C9.84640991 54.59460327 9.84640991 54.59460327 9.59008789 55.80297852 C7.09805129 65.74122459 -0.58662089 74.56895883 -9.05078125 80.1328125 C-22.43931578 87.1624639 -38.71280188 88.41515108 -53.19140625 84.19140625 C-64.89229461 79.87883961 -74.50972424 72.54857221 -80 61.15625 C-86.17706476 45.52577193 -87.24448635 28.85426391 -80.7109375 13.03515625 C-73.9237794 -0.04917795 -64.56571495 -7.43132449 -50.63671875 -12.09375 C-32.70127775 -17.19538655 -13.58352479 -12.52231191 0 0 Z " fill="#00A54A" transform="translate(838,78.84375)"/>
<path d="M0 0 C5.0900969 4.37226272 8.35898806 9.04786693 9.9375 15.625 C9.9375 18.265 9.9375 20.905 9.9375 23.625 C0.0375 23.625 -9.8625 23.625 -20.0625 23.625 C-20.7225 21.645 -21.3825 19.665 -22.0625 17.625 C-23.69295713 16.01760542 -23.69295713 16.01760542 -26.0625 15.625 C-29.74453915 15.93626713 -29.74453915 15.93626713 -33.0625 16.625 C-34.00857807 19.37461511 -34.00857807 19.37461511 -34.0625 22.625 C-29.84918676 28.49115495 -23.37478679 30.15023082 -16.8125 32.5625 C4.64571415 40.48611618 4.64571415 40.48611618 9.9375 50.625 C13.30093564 59.4339981 12.28651686 67.05036201 8.9375 75.625 C4.20767059 84.40896891 -2.80328954 88.60063477 -12.0625 91.625 C-24.29471205 95.0698299 -38.60387173 92.99487683 -49.8125 87.4375 C-57.58377657 82.75249069 -61.50547666 76.70409259 -64.43359375 68.23828125 C-65.0625 65.625 -65.0625 65.625 -65.0625 60.625 C-55.1625 60.625 -45.2625 60.625 -35.0625 60.625 C-34.0725 62.935 -33.0825 65.245 -32.0625 67.625 C-29.37306488 69.93023011 -28.02758683 69.6225922 -24.4375 69.375 C-21.00977116 68.93018815 -21.00977116 68.93018815 -19.0625 66.625 C-18.58591823 63.18975248 -18.58591823 63.18975248 -20.0625 59.625 C-26.06815446 54.7543855 -35.03888998 52.70681678 -42.28466797 50.2109375 C-48.89827021 47.88420486 -54.19444132 45.04804139 -58.8125 39.625 C-59.38484375 38.965 -59.9571875 38.305 -60.546875 37.625 C-65.13213831 31.57434326 -65.41503371 24.57614015 -64.88671875 17.15625 C-63.51561769 9.2897308 -59.31269656 2.92252169 -52.875 -1.75 C-37.64088355 -10.81492879 -14.40724184 -10.53106332 0 0 Z " fill="#00743D" transform="translate(1652.0625,210.375)"/>
<path d="M0 0 C59.72580645 0 59.72580645 0 70.00390625 9.9375 C76.31009204 17.31007629 78.62558322 25.89809799 78.2890625 35.51953125 C77.1375853 45.40045045 73.10681605 52.96567172 65.41064453 59.29077148 C57.43371507 64.9466843 48.79289855 65.54947167 39.3125 65.25 C35.579375 65.1675 31.84625 65.085 28 65 C28 75.89 28 86.78 28 98 C18.76 98 9.52 98 0 98 C0 65.66 0 33.32 0 0 Z M28 23 C28 29.6 28 36.2 28 43 C31.3103125 43.0928125 31.3103125 43.0928125 34.6875 43.1875 C35.92886719 43.22230469 37.17023438 43.25710937 38.44921875 43.29296875 C42.2457708 42.97972188 44.01467371 42.30757653 47 40 C49.45928744 36.31106884 49.69305579 33.28358579 49 29 C46.8755173 25.55687286 45.85147359 24.28382453 42 23 C37.33032246 22.86409553 32.67262015 22.95713193 28 23 Z " fill="#00743D" transform="translate(1504,204)"/>
<path d="M0 0 C58.4084507 0 58.4084507 0 69.7734375 10.6640625 C76.48510627 17.83408914 77.48764054 25.12029125 77.421875 34.63574219 C77.13662591 43.18195504 74.66083187 50.14492351 68.76953125 56.46875 C56.90297258 66.73738355 43.03177199 66 28 66 C28 76.56 28 87.12 28 98 C18.76 98 9.52 98 0 98 C0 65.66 0 33.32 0 0 Z M28 23 C28 29.6 28 36.2 28 43 C31.3103125 43.0928125 31.3103125 43.0928125 34.6875 43.1875 C35.92886719 43.22230469 37.17023438 43.25710937 38.44921875 43.29296875 C42.21982743 42.98186242 44.01091048 42.25280644 47 40 C49.32826375 36.78477863 49.39711181 33.89169575 49 30 C47.67382963 26.92886863 46.80185422 25.41524593 43.8125 23.8671875 C40.47448167 22.83796518 37.67433079 22.80455897 34.1875 22.875 C32.145625 22.91625 30.10375 22.9575 28 23 Z " fill="#73C229" transform="translate(1128,66)"/>
<path d="M0 0 C58.20143885 0 58.20143885 0 69.7734375 10.62890625 C76.47542732 17.67416872 77.49185233 25.60842791 77.421875 35.04443359 C77.12053471 43.4601542 74.5223719 50.2935489 68.76953125 56.46875 C56.90297258 66.73738355 43.03177199 66 28 66 C28 76.56 28 87.12 28 98 C18.76 98 9.52 98 0 98 C0 65.66 0 33.32 0 0 Z M28 23 C28 29.6 28 36.2 28 43 C31.3103125 43.0928125 31.3103125 43.0928125 34.6875 43.1875 C35.92886719 43.22230469 37.17023437 43.25710937 38.44921875 43.29296875 C42.21982743 42.98186242 44.01091048 42.25280644 47 40 C49.32826375 36.78477863 49.39711181 33.89169575 49 30 C47.67382963 26.92886863 46.80185422 25.41524593 43.8125 23.8671875 C40.47448167 22.83796518 37.67433079 22.80455897 34.1875 22.875 C32.145625 22.91625 30.10375 22.9575 28 23 Z " fill="#00A54A" transform="translate(569,66)"/>
<path d="M0 0 C57.92081448 0 57.92081448 0 68 9 C74.76305624 16.04546958 77.1258822 23.34668521 77.375 33 C77.15706615 41.80263261 75.24493909 49.52204079 69 56 C59.55072442 63.81311697 50.44917716 65.46764851 38.4375 65.1875 C34.663125 65.125625 30.88875 65.06375 27 65 C27 75.89 27 86.78 27 98 C18.09 98 9.18 98 0 98 C0 65.66 0 33.32 0 0 Z M27 23 C27 29.6 27 36.2 27 43 C29.371875 43.061875 31.74375 43.12375 34.1875 43.1875 C34.92508545 43.21481201 35.6626709 43.24212402 36.42260742 43.27026367 C40.82047849 43.32549689 43.57923791 42.79880535 47 40 C48.79665986 36.86945631 49.31504251 33.52765894 48.5859375 29.9921875 C47.61302689 27.43696075 46.60561789 25.44044937 44.3671875 23.8125 C41.00600715 22.65882754 37.75416148 22.78955109 34.25 22.875 C30.66125 22.936875 30.66125 22.936875 27 23 Z " fill="#00743D" transform="translate(1419,204)"/>
<path d="M0 0 C20.79 0 41.58 0 63 0 C63 7.59 63 15.18 63 23 C51.45 23 39.9 23 28 23 C28 27.95 28 32.9 28 38 C38.23 38 48.46 38 59 38 C59 44.93 59 51.86 59 59 C48.77 59 38.54 59 28 59 C28 64.61 28 70.22 28 76 C39.55 76 51.1 76 63 76 C63 83.26 63 90.52 63 98 C42.21 98 21.42 98 0 98 C0 65.66 0 33.32 0 0 Z " fill="#00743D" transform="translate(1115,204)"/>
<path d="M0 0 C20.79 0 41.58 0 63 0 C63 7.59 63 15.18 63 23 C51.45 23 39.9 23 28 23 C28 27.95 28 32.9 28 38 C38.23 38 48.46 38 59 38 C59 44.93 59 51.86 59 59 C48.77 59 38.54 59 28 59 C28 64.61 28 70.22 28 76 C39.55 76 51.1 76 63 76 C63 83.26 63 90.52 63 98 C42.21 98 21.42 98 0 98 C0 65.66 0 33.32 0 0 Z " fill="#00743D" transform="translate(914,204)"/>
<path d="M0 0 C20.79 0 41.58 0 63 0 C63 7.59 63 15.18 63 23 C51.45 23 39.9 23 28 23 C28 27.95 28 32.9 28 38 C38.23 38 48.46 38 59 38 C59 44.93 59 51.86 59 59 C48.77 59 38.54 59 28 59 C28 64.61 28 70.22 28 76 C39.55 76 51.1 76 63 76 C63 83.26 63 90.52 63 98 C42.21 98 21.42 98 0 98 C0 65.66 0 33.32 0 0 Z " fill="#73C229" transform="translate(1054,66)"/>
<path d="M0 0 C26.07 0 52.14 0 79 0 C79 7.59 79 15.18 79 23 C70.42 23 61.84 23 53 23 C53 47.75 53 72.5 53 98 C43.76 98 34.52 98 25 98 C25 73.25 25 48.5 25 23 C16.75 23 8.5 23 0 23 C0 15.41 0 7.82 0 0 Z " fill="#73C229" transform="translate(1404,66)"/>
<path d="M0 0 C26.07 0 52.14 0 79 0 C79 7.59 79 15.18 79 23 C70.42 23 61.84 23 53 23 C53 47.75 53 72.5 53 98 C43.76 98 34.52 98 25 98 C25 73.25 25 48.5 25 23 C16.75 23 8.5 23 0 23 C0 15.41 0 7.82 0 0 Z " fill="#00A54A" transform="translate(854,66)"/>
<path d="M0 0 C9.24 0 18.48 0 28 0 C28.09083791 9.16309975 28.16402296 18.3258941 28.20724869 27.4893446 C28.22800844 31.74559114 28.25610982 36.00151021 28.30175781 40.25756836 C28.34563508 44.37490815 28.36922409 48.49193556 28.37950897 52.60949135 C28.38682606 54.17017844 28.40111157 55.73085096 28.42292023 57.29140282 C28.57547393 68.67379513 28.08495039 80.09896246 20.875 89.5 C14.15296787 96.35241638 5.78673694 99.05880286 -3.62084961 99.24169922 C-14.98158998 99.28733007 -24.06557567 97.5651639 -33 90 C-41.14376979 81.5717317 -42 73.7660449 -42 62 C-33.09 62 -24.18 62 -15 62 C-14.01 64.97 -13.02 67.94 -12 71 C-9.17431454 73.32038095 -9.17431454 73.32038095 -5.9375 72.8125 C-2.70259047 72.26245502 -2.70259047 72.26245502 -1 69 C-0.66969338 65.90549392 -0.66969338 65.90549392 -0.68115234 62.32543945 C-0.66608391 61.31528778 -0.66608391 61.31528778 -0.65071106 60.284729 C-0.61984396 58.06092169 -0.60283449 55.83723496 -0.5859375 53.61328125 C-0.56722865 52.07056132 -0.54765544 50.52785165 -0.5272522 48.9851532 C-0.47589494 44.92623948 -0.43628857 40.86729258 -0.39910889 36.80822754 C-0.35909169 32.66568772 -0.30798895 28.52328639 -0.2578125 24.38085938 C-0.16101061 16.25399379 -0.07764416 8.12707122 0 0 Z " fill="#00743D" transform="translate(873,204)"/>
<path d="M0 0 C9.24 0 18.48 0 28 0 C28 32.34 28 64.68 28 98 C18.76 98 9.52 98 0 98 C0 65.66 0 33.32 0 0 Z " fill="#00A54A" transform="translate(401,66)"/>
</svg>
